<?xml version="1.0" standalone="no"?>
<!DOCTYPE svg PUBLIC "-//W3C//DTD SVG 20010904//EN"
 "http://www.w3.org/TR/2001/REC-SVG-20010904/DTD/svg10.dtd">
<svg version="1.0" xmlns="http://www.w3.org/2000/svg"
 width="313.000000pt" height="313.000000pt" viewBox="0 0 313.000000 313.000000"
 preserveAspectRatio="xMidYMid meet">
<metadata>
Created by potrace 1.11, written by Peter Selinger 2001-2013
</metadata>
<g transform="translate(0.000000,313.000000) scale(0.100000,-0.100000)"
fill="#000000" stroke="none">
<path d="M1545 2971 c-11 -5 -23 -7 -26 -5 -14 8 -67 -93 -74 -138 -3 -27 -9
-48 -12 -48 -3 0 -17 8 -31 18 -46 32 -71 33 -108 5 -28 -20 -39 -42 -65 -121
-17 -56 -34 -132 -38 -180 -6 -72 -10 -86 -34 -110 l-28 -27 6 100 c4 55 8
116 10 135 4 46 -31 120 -57 120 -43 0 -105 -48 -160 -126 l-39 -54 -60 30
c-84 43 -118 31 -134 -46 -18 -89 -36 -239 -39 -318 -1 -33 -17 -40 -108 -50
-121 -13 -169 -30 -223 -77 l-35 -31 3 -268 c3 -265 3 -268 27 -304 31 -45
106 -102 191 -146 l66 -33 57 -166 c31 -91 72 -218 91 -281 18 -63 47 -149 63
-191 37 -93 58 -173 67 -258 5 -45 15 -75 33 -101 31 -43 108 -103 137 -107
137 -19 335 -22 699 -9 182 6 218 13 327 70 76 39 82 49 137 231 22 72 59 171
82 220 23 50 53 115 67 145 14 30 45 97 69 148 24 51 44 94 44 97 0 2 31 68
69 147 37 79 71 154 75 166 4 12 10 22 14 23 4 0 37 2 73 4 82 5 149 33 178
74 20 28 21 35 11 91 -6 33 -18 79 -27 102 -10 29 -16 87 -18 176 -3 121 -6
139 -30 185 -14 29 -37 65 -50 81 l-23 29 -151 0 c-83 0 -151 3 -152 6 0 3 -2
15 -4 26 -2 11 -6 58 -10 105 -9 115 -10 119 -23 166 -7 23 -19 45 -28 48 -23
9 -68 -21 -89 -60 -10 -19 -21 -34 -24 -34 -3 0 -7 27 -8 59 -3 71 -39 132
-90 150 -35 13 -44 10 -82 -23 -19 -17 -25 -18 -29 -7 -3 8 -16 26 -30 40 -13
13 -29 39 -34 57 -5 19 -20 47 -34 63 l-25 30 -32 -19 c-52 -32 -73 -75 -91
-191 -9 -58 -18 -116 -19 -128 -1 -14 -7 -21 -17 -19 -13 3 -15 30 -18 178 -2
96 -8 191 -14 210 -20 66 -57 119 -95 135 -39 17 -49 17 -78 6z"/>
</g>
</svg>
